<?xml version="1.0" standalone="no"?>
<!DOCTYPE svg PUBLIC "-//W3C//DTD SVG 20010904//EN"
 "http://www.w3.org/TR/2001/REC-SVG-20010904/DTD/svg10.dtd">
<svg version="1.0" xmlns="http://www.w3.org/2000/svg"
 width="1200.000000pt" height="1200.000000pt" viewBox="0 0 1200.000000 1200.000000"
 preserveAspectRatio="xMidYMid meet">

<g transform="translate(0.000000,1200.000000) scale(0.100000,-0.100000)"
fill="#000000" stroke="none">
<path d="M5460 9780 c-18 -18 -20 -33 -20 -160 0 -127 2 -142 20 -160 23 -23
33 -24 61 -10 17 10 19 23 19 165 0 148 -1 154 -22 169 -29 20 -34 20 -58 -4z"/>
<path d="M5642 9784 c-21 -14 -22 -22 -22 -163 0 -136 2 -149 20 -166 16 -15
26 -17 48 -9 l27 9 3 155 c3 148 2 156 -19 173 -26 21 -29 21 -57 1z"/>
<path d="M5810 9780 c-18 -18 -20 -33 -20 -160 0 -127 2 -142 20 -160 22 -22
42 -25 71 -10 17 10 19 23 19 154 0 130 -2 146 -21 170 -25 31 -42 33 -69 6z"/>
<path d="M5992 9784 c-21 -14 -22 -22 -22 -163 0 -136 2 -149 20 -166 16 -15
26 -17 48 -9 l27 9 3 155 c3 148 2 156 -19 173 -26 21 -29 21 -57 1z"/>
<path d="M6162 9780 c-21 -19 -22 -30 -22 -160 0 -127 2 -142 20 -160 22 -22
42 -25 71 -10 17 10 19 23 19 160 0 137 -2 152 -20 170 -25 25 -41 25 -68 0z"/>
<path d="M6342 9784 c-21 -14 -22 -22 -22 -163 0 -131 2 -150 18 -164 10 -10
28 -17 39 -17 41 0 46 22 44 178 -2 135 -3 148 -22 165 -26 21 -29 21 -57 1z"/>
<path d="M6532 9784 c-21 -14 -22 -22 -22 -163 0 -137 2 -149 21 -167 19 -17
23 -17 47 -3 l27 15 3 147 c2 136 1 148 -18 167 -24 24 -29 24 -58 4z"/>
<path d="M5286 9764 c-23 -23 -23 -255 0 -278 21 -21 40 -20 64 4 18 18 20 33
20 133 0 86 -4 118 -16 135 -18 26 -46 28 -68 6z"/>
<path d="M6707 9767 c-15 -11 -17 -29 -15 -147 l3 -135 28 -10 c48 -16 57 8
57 157 0 116 -2 128 -19 138 -25 13 -33 13 -54 -3z"/>
<path d="M1129 9321 c-116 -37 -200 -126 -219 -232 -15 -84 -92 -848 -91 -907
1 -124 98 -238 232 -275 47 -13 289 -16 1767 -21 l1712 -6 0 284 0 284 30 31
c36 36 86 46 200 39 51 -3 88 -11 105 -22 50 -33 55 -62 55 -347 l0 -262 2998
6 c3317 8 3062 2 3169 72 60 40 97 85 118 144 20 58 19 94 -3 114 -17 16 -107
17 -1093 17 -1024 0 -1076 1 -1114 19 -51 24 -88 63 -117 126 -22 47 -23 62
-23 265 l0 215 29 58 c34 70 85 111 157 126 34 7 372 11 1036 11 l985 0 -7 38
c-17 91 -82 168 -181 214 l-49 23 -4820 2 c-4622 2 -4822 1 -4876 -16z m5353
-209 c76 -27 132 -73 161 -133 l27 -53 0 -330 c0 -301 -2 -335 -19 -371 -25
-54 -74 -98 -146 -132 l-60 -28 -441 0 -441 0 -69 35 c-75 38 -126 94 -144
158 -14 52 -13 639 1 683 25 75 95 140 182 170 47 17 94 18 477 18 371 0 431
-3 472 -17z"/>
<path d="M835 7730 c-66 -33 -80 -66 -80 -197 0 -125 10 -149 76 -188 34 -20
54 -20 1867 -23 l1832 -2 0 215 0 215 -1827 0 c-1807 0 -1828 0 -1868 -20z"/>
<path d="M4900 7535 l0 -215 3169 2 3170 3 27 21 c62 46 69 65 69 189 0 123
-7 143 -69 189 l-27 21 -3170 3 -3169 2 0 -215z"/>
<path d="M982 7189 c-91 -18 -154 -84 -172 -180 -7 -37 -9 -682 -8 -1910 l3
-1855 25 -48 c31 -61 89 -103 159 -116 34 -6 420 -10 1055 -10 l1001 0 -70 35
c-124 60 -229 187 -273 329 -15 46 -17 218 -20 1666 -2 1151 0 1638 8 1695 21
151 121 298 255 376 l50 29 -985 -1 c-542 -1 -1004 -5 -1028 -10z"/>
<path d="M9119 7152 c66 -44 155 -137 185 -191 14 -27 35 -84 46 -127 20 -75
20 -116 20 -1689 0 -1113 -3 -1629 -11 -1670 -27 -145 -146 -302 -282 -370
l-70 -35 1035 0 c1121 0 1088 -2 1161 55 20 14 46 48 59 73 l23 47 3 1855 c2
1282 -1 1870 -8 1905 -15 70 -53 120 -113 150 l-51 25 -1019 0 -1020 0 42 -28z"/>
<path d="M5750 7109 c-749 -77 -1450 -522 -1844 -1173 -324 -533 -428 -1139
-305 -1766 89 -452 332 -902 669 -1241 376 -378 870 -622 1415 -701 136 -20
532 -17 670 5 261 41 507 118 735 230 711 352 1206 1016 1341 1802 27 153 36
465 20 631 -80 791 -520 1481 -1203 1885 -305 181 -650 294 -1002 328 -126 13
-372 12 -496 0z m600 -124 c483 -75 919 -288 1272 -624 585 -556 843 -1378
682 -2170 -148 -723 -659 -1360 -1334 -1662 -147 -66 -347 -132 -476 -158
-687 -139 -1373 17 -1917 437 -707 547 -1046 1450 -870 2322 176 874 850 1583
1718 1806 111 28 226 49 385 68 78 9 440 -3 540 -19z"/>
<path d="M5760 6909 c-444 -48 -882 -232 -1215 -511 -450 -376 -734 -898 -805
-1480 -19 -147 -8 -502 19 -653 130 -727 590 -1338 1246 -1655 314 -151 626
-222 980 -223 270 0 464 29 710 109 592 191 1087 628 1355 1197 131 277 196
553 207 867 13 391 -58 737 -220 1073 -120 249 -245 426 -442 622 -370 371
-829 592 -1345 651 -134 15 -368 17 -490 3z m426 -220 c715 -70 1341 -508
1650 -1154 160 -334 231 -732 194 -1083 -97 -908 -765 -1637 -1657 -1808 -185
-36 -472 -44 -643 -20 -684 99 -1248 497 -1556 1098 -143 280 -210 547 -221
879 -11 341 52 637 202 944 202 415 532 744 949 946 346 167 714 235 1082 198z"/>
<path d="M5833 6423 c3 -10 8 -58 12 -108 9 -128 12 -135 46 -135 30 0 30 0
24 48 -4 26 -9 83 -13 127 l-7 80 -33 3 c-29 3 -33 1 -29 -15z"/>
<path d="M6117 6383 c-3 -27 -9 -85 -13 -130 l-7 -83 30 0 c30 0 30 0 37 73 4
39 9 98 13 130 l6 57 -30 0 c-29 0 -31 -3 -36 -47z"/>
<path d="M5565 6380 c-3 -5 4 -46 15 -92 43 -169 36 -155 70 -150 16 2 30 6
30 9 0 4 -30 125 -51 206 -8 30 -14 37 -34 37 -13 0 -26 -4 -30 -10z"/>
<path d="M6494 6366 c-3 -7 -20 -63 -38 -124 l-33 -110 24 -11 c18 -8 25 -8
28 2 2 6 19 62 38 124 l34 111 -24 11 c-18 8 -25 8 -29 -3z"/>
<path d="M5454 6361 c-22 -6 -21 -6 14 -126 20 -66 37 -122 38 -123 1 -2 16
-1 32 3 l29 6 -37 121 c-20 67 -40 123 -46 124 -5 1 -19 -1 -30 -5z"/>
<path d="M6740 6212 c-18 -37 -43 -90 -56 -118 l-23 -51 24 -11 c24 -11 26 -8
80 105 30 64 54 117 53 118 -2 1 -12 7 -24 13 -18 10 -23 5 -54 -56z"/>
<path d="M5200 6257 c-14 -6 -26 -12 -27 -12 -5 -2 118 -235 123 -235 5 0 46
20 52 26 3 2 -118 235 -121 233 -1 0 -13 -5 -27 -12z"/>
<path d="M6859 6191 c-9 -15 -37 -65 -62 -112 l-47 -86 24 -11 c24 -10 27 -7
86 100 33 61 60 112 58 113 -2 1 -12 7 -23 13 -17 9 -23 6 -36 -17z"/>
<path d="M4960 6105 c-12 -15 -7 -45 8 -45 4 0 17 6 27 14 16 12 17 16 6 30
-17 20 -25 20 -41 1z"/>
<path d="M5840 6109 c-150 -25 -232 -44 -310 -71 -508 -176 -876 -599 -980
-1127 -25 -127 -27 -341 -5 -488 46 -308 190 -596 410 -818 178 -180 332 -277
580 -365 96 -34 136 -43 284 -66 220 -33 473 -3 707 86 464 174 814 575 922
1055 48 213 50 380 6 610 -83 435 -386 836 -779 1030 -118 58 -260 111 -339
126 -200 38 -374 48 -496 28z m338 -79 c266 -28 544 -151 749 -332 202 -178
336 -383 416 -633 52 -165 62 -237 61 -445 0 -167 -3 -196 -27 -295 -80 -322
-245 -584 -492 -780 -231 -182 -479 -281 -766 -303 -519 -41 -1015 204 -1295
640 -145 225 -224 501 -224 780 0 283 120 618 304 847 311 386 770 574 1274
521z"/>
<path d="M5780 5911 c-464 -83 -850 -416 -1000 -861 -78 -231 -81 -537 -9
-784 72 -242 231 -475 436 -639 228 -182 490 -271 798 -271 303 -1 566 89 800
272 245 194 405 455 470 772 23 108 23 330 1 453 -74 421 -330 764 -711 955
-73 36 -229 83 -340 103 -136 23 -313 23 -445 0z m385 -105 c161 -22 244 -49
386 -122 392 -203 630 -597 631 -1044 1 -323 -115 -602 -342 -830 -136 -135
-289 -229 -470 -288 -147 -47 -202 -56 -370 -55 -178 0 -263 16 -433 83 -374
146 -650 487 -722 892 -19 108 -19 302 0 403 118 628 693 1047 1320 961z"/>
<path d="M5823 5675 c-366 -66 -674 -325 -806 -676 -84 -224 -82 -495 5 -723
183 -477 664 -755 1159 -670 406 70 738 376 846 779 35 133 37 329 6 476 -79
364 -345 663 -693 778 -151 49 -362 64 -517 36z m-63 -431 c115 -45 181 -122
181 -211 1 -26 -4 -60 -10 -74 -17 -46 -72 -99 -135 -132 -56 -29 -69 -31
-161 -32 -89 0 -107 3 -160 28 -105 49 -155 116 -155 207 0 108 79 191 215
227 62 16 167 10 225 -13z"/>
<path d="M4998 6034 c-15 -16 -12 -22 39 -90 54 -72 55 -73 79 -58 14 10 21
21 16 28 -26 44 -99 135 -107 136 -6 0 -18 -7 -27 -16z"/>
<path d="M4864 6025 c-4 -9 -2 -21 4 -27 15 -15 44 -1 40 19 -4 23 -36 29 -44
8z"/>
<path d="M7174 5985 c-4 -9 -2 -21 4 -27 15 -15 44 -1 40 19 -4 23 -36 29 -44
8z"/>
<path d="M4913 5972 l-22 -17 60 -72 c33 -40 64 -73 68 -73 4 0 16 8 25 19 16
18 14 22 -39 87 -31 38 -60 70 -63 71 -4 2 -17 -5 -29 -15z"/>
<path d="M7096 5928 c-10 -13 -37 -42 -59 -65 l-40 -42 24 -20 24 -20 62 67
c57 62 60 68 46 85 -21 23 -35 22 -57 -5z"/>
<path d="M7077 3563 c-12 -12 -7 -41 7 -46 22 -9 41 19 26 38 -14 16 -23 19
-33 8z"/>
<path d="M7127 3502 c-16 -17 -12 -22 53 -87 65 -65 71 -68 87 -53 15 16 14
20 -23 60 -49 53 -94 98 -98 98 -2 0 -10 -8 -19 -18z"/>
<path d="M5070 3402 c0 -26 22 -43 40 -32 12 7 12 13 4 27 -16 26 -44 29 -44
5z"/>
<path d="M4997 3327 c-81 -101 -79 -98 -61 -119 10 -10 20 -18 24 -18 4 0 32
33 62 73 l55 72 -23 18 c-22 17 -23 16 -57 -26z"/>
<path d="M5152 3352 c-15 -10 -5 -42 13 -42 17 0 38 27 30 40 -7 12 -25 13
-43 2z"/>
<path d="M6832 3338 c-6 -6 -12 -15 -12 -19 0 -4 28 -51 61 -104 62 -95 80
-109 102 -75 7 12 -6 39 -53 110 -63 98 -77 109 -98 88z"/>
<path d="M5066 3240 c-47 -77 -48 -81 -30 -95 10 -8 22 -15 26 -15 4 0 28 34
54 75 45 73 46 76 29 95 -10 11 -21 20 -24 20 -3 0 -28 -36 -55 -80z"/>
<path d="M6743 3293 c-19 -7 -17 -14 33 -104 75 -135 71 -130 97 -118 l24 11
-60 109 c-56 104 -66 114 -94 102z"/>
<path d="M5312 3128 c-49 -104 -51 -114 -35 -125 9 -7 20 -13 23 -13 8 0 110
214 110 229 0 8 -23 21 -38 21 -4 0 -31 -51 -60 -112z"/>
<path d="M6525 3198 c-11 -6 -21 -12 -23 -13 -5 -5 81 -245 88 -245 3 0 14 6
24 13 16 12 14 20 -25 132 -23 66 -42 121 -43 122 -1 1 -10 -3 -21 -9z"/>
<path d="M5564 3036 l-31 -125 25 -6 c13 -3 27 -3 31 0 3 4 20 60 37 126 27
108 29 119 13 119 -10 0 -23 2 -31 5 -10 4 -21 -26 -44 -119z"/>
<path d="M5671 3029 c-13 -65 -20 -122 -16 -128 3 -6 17 -11 29 -11 21 0 25 8
45 108 27 137 27 139 -7 144 l-29 4 -22 -117z"/>
<path d="M6194 3064 c3 -31 11 -89 18 -131 11 -74 11 -74 37 -68 14 4 27 8 29
10 1 1 -5 57 -15 124 l-17 121 -30 0 -29 0 7 -56z"/>
<path d="M5930 3048 c0 -35 -3 -93 -7 -130 l-6 -68 30 0 c30 0 30 1 37 61 3
34 6 93 6 130 l0 69 -30 0 -30 0 0 -62z"/>
<path d="M1555 2940 c-671 -5 -743 -7 -766 -22 -27 -17 -59 -74 -59 -104 0
-16 -12 -17 -173 -11 -94 4 -259 10 -364 13 l-193 7 0 -86 0 -87 28 -1 c332
-7 706 -27 710 -38 10 -29 57 -72 90 -81 26 -8 595 -10 1850 -8 l1814 3 -133
110 c-73 61 -180 156 -237 213 l-103 102 -862 -2 c-474 -2 -1195 -5 -1602 -8z"/>
<path d="M8360 2942 l-355 -2 -105 -103 c-116 -114 -199 -187 -304 -265 l-69
-52 1834 0 c1726 0 1836 1 1869 18 43 21 80 75 80 115 l0 30 183 -7 c100 -3
255 -9 345 -13 l162 -6 0 87 c0 47 -3 86 -7 87 -5 0 -159 6 -344 13 l-337 12
-34 36 c-21 22 -50 40 -77 48 -41 11 -1525 12 -2841 2z"/>
</g>
</svg>
