<?xml version="1.0" standalone="no"?>
<!DOCTYPE svg PUBLIC "-//W3C//DTD SVG 20010904//EN"
 "http://www.w3.org/TR/2001/REC-SVG-20010904/DTD/svg10.dtd">
<svg version="1.0" xmlns="http://www.w3.org/2000/svg"
 width="1200.000000pt" height="1200.000000pt" viewBox="0 0 1200.000000 1200.000000"
 preserveAspectRatio="xMidYMid meet">

<g transform="translate(0.000000,1200.000000) scale(0.100000,-0.100000)"
fill="#000000" stroke="none">
<path d="M5737 8574 c-4 -4 -7 -36 -7 -71 0 -57 2 -63 20 -63 19 0 21 5 18 67
-3 61 -14 84 -31 67z"/>
<path d="M5807 8574 c-4 -4 -7 -36 -7 -71 0 -57 2 -63 20 -63 19 0 21 5 18 67
-3 61 -14 84 -31 67z"/>
<path d="M5877 8574 c-4 -4 -7 -36 -7 -71 0 -57 2 -63 20 -63 19 0 21 5 18 67
-3 61 -14 84 -31 67z"/>
<path d="M5947 8573 c-4 -3 -7 -35 -7 -70 0 -61 1 -64 23 -61 18 2 23 10 25
47 2 25 1 55 -3 68 -5 22 -24 30 -38 16z"/>
<path d="M6014 8567 c-3 -8 -4 -39 -2 -68 3 -48 6 -54 26 -57 22 -3 23 -1 20
65 -2 55 -6 68 -21 71 -9 2 -20 -3 -23 -11z"/>
<path d="M6085 8557 c-4 -13 -5 -43 -3 -68 3 -37 7 -45 26 -47 22 -3 23 -1 20
65 -2 55 -6 68 -20 71 -11 2 -19 -5 -23 -21z"/>
<path d="M6167 8573 c-4 -3 -7 -33 -7 -65 0 -45 4 -60 16 -65 9 -3 20 0 25 8
10 16 12 90 3 113 -6 16 -26 21 -37 9z"/>
<path d="M5660 8516 c0 -30 5 -58 11 -61 15 -10 19 -3 23 45 5 50 -1 70 -20
70 -10 0 -14 -15 -14 -54z"/>
<path d="M6242 8513 c3 -60 23 -83 34 -39 9 38 -4 96 -22 96 -12 0 -14 -12
-12 -57z"/>
<path d="M3933 8370 c-54 -32 -60 -52 -82 -260 -19 -184 -19 -197 -3 -229 9
-19 30 -44 45 -55 28 -21 39 -21 743 -24 l714 -2 0 114 c0 135 6 146 79 146
76 0 80 -8 83 -140 l3 -115 1235 1 c1140 0 1238 2 1270 17 38 19 70 62 70 96
l0 21 -439 0 c-262 0 -450 4 -465 10 -14 5 -35 24 -46 42 -18 29 -21 46 -18
131 3 97 3 99 36 128 l32 29 415 0 c391 0 415 1 415 18 0 25 -27 60 -60 77
-25 13 -272 15 -2012 15 -1948 0 -1984 0 -2015 -20z m2231 -74 c60 -25 66 -43
66 -206 0 -162 -4 -176 -64 -204 -27 -13 -68 -16 -205 -16 -267 0 -276 8 -276
226 0 157 5 171 70 200 43 19 363 19 409 0z"/>
<path d="M3827 7722 c-11 -12 -17 -36 -17 -69 0 -90 -66 -83 788 -83 l752 0 0
85 0 85 -753 0 c-718 0 -755 -1 -770 -18z"/>
<path d="M5510 7655 l0 -85 1295 0 c1282 0 1295 0 1315 20 14 14 20 33 20 65
0 32 -6 51 -20 65 -20 20 -33 20 -1315 20 l-1295 0 0 -85z"/>
<path d="M3893 7509 c-67 -19 -63 28 -63 -837 l0 -784 29 -29 29 -29 418 0
418 0 -33 25 c-19 13 -46 41 -60 61 l-26 37 -3 715 -2 715 25 43 c14 24 37 51
50 60 14 9 22 20 19 25 -7 12 -760 10 -801 -2z"/>
<path d="M7273 7462 c35 -38 47 -61 56 -104 8 -39 11 -248 9 -714 -3 -739 1
-694 -79 -771 l-44 -43 422 0 422 0 28 24 28 24 0 792 0 792 -28 24 -28 24
-416 0 -416 0 46 -48z"/>
<path d="M5880 7483 c-167 -18 -300 -61 -446 -144 -56 -31 -109 -74 -179 -144
-156 -155 -242 -313 -284 -522 -25 -120 -26 -199 -6 -331 18 -121 36 -183 85
-288 148 -321 448 -532 817 -575 281 -33 606 90 813 308 124 129 202 271 252
451 31 112 31 361 0 479 -67 256 -230 483 -443 616 -173 108 -427 170 -609
150z m251 -59 c225 -42 408 -150 558 -326 112 -131 185 -288 215 -464 21 -120
20 -216 -5 -337 -75 -369 -330 -639 -704 -748 -69 -20 -102 -23 -240 -23 -145
0 -169 2 -254 27 -174 52 -303 130 -432 263 -122 126 -204 271 -245 434 -26
105 -27 365 -1 463 38 142 104 271 194 377 156 183 346 295 566 335 100 18
250 18 348 -1z"/>
<path d="M5775 7385 c-252 -48 -477 -204 -614 -426 -217 -353 -171 -810 114
-1117 177 -192 409 -292 676 -292 421 0 770 263 895 677 24 77 27 105 28 233
1 169 -20 269 -85 408 -125 270 -376 464 -669 518 -93 17 -253 16 -345 -1z
m390 -98 c260 -73 463 -253 562 -497 48 -119 58 -173 58 -320 0 -111 -4 -149
-23 -214 -84 -292 -321 -523 -612 -597 -82 -21 -327 -18 -409 4 -153 42 -260
105 -381 227 -120 119 -188 242 -226 405 -21 91 -21 278 -1 365 79 334 354
589 692 644 56 9 290 -3 340 -17z"/>
<path d="M5892 7160 c3 -28 8 -53 12 -57 13 -14 18 8 11 56 -9 67 -29 68 -23
1z"/>
<path d="M6000 7150 c0 -27 5 -50 10 -50 6 0 10 8 10 19 0 10 3 33 6 50 5 24
3 31 -10 31 -13 0 -16 -11 -16 -50z"/>
<path d="M5786 7182 c-11 -18 14 -106 26 -94 6 6 5 28 -4 58 -9 33 -16 45 -22
36z"/>
<path d="M6153 7160 c-18 -45 -24 -80 -14 -80 12 0 34 76 28 93 -3 7 -9 1 -14
-13z"/>
<path d="M5730 7159 c0 -23 23 -89 32 -89 11 0 10 17 -3 63 -9 34 -29 52 -29
26z"/>
<path d="M6251 7097 c-23 -47 -25 -57 -13 -57 13 0 52 89 43 95 -5 3 -19 -14
-30 -38z"/>
<path d="M5620 7125 c0 -12 45 -95 51 -95 19 0 16 19 -7 58 -21 35 -44 55 -44
37z"/>
<path d="M6299 7088 c-7 -13 -19 -33 -27 -45 -12 -20 -12 -23 0 -23 8 0 24 20
36 45 22 45 13 65 -9 23z"/>
<path d="M5530 7059 c0 -5 5 -7 10 -4 6 3 10 8 10 11 0 2 -4 4 -10 4 -5 0 -10
-5 -10 -11z"/>
<path d="M5784 7046 c-106 -34 -172 -74 -250 -151 -122 -121 -176 -249 -177
-420 0 -171 56 -308 178 -431 118 -120 251 -174 428 -174 164 0 305 60 425
180 117 117 178 280 169 450 -12 209 -115 378 -298 491 -127 79 -330 102 -475
55z m311 -18 c84 -18 203 -86 271 -154 116 -118 169 -258 162 -434 -5 -123
-33 -206 -104 -307 -54 -76 -106 -121 -192 -166 -98 -52 -171 -70 -276 -69
-166 1 -285 51 -402 167 -107 105 -159 220 -170 370 -11 156 42 305 152 424
145 156 341 216 559 169z"/>
<path d="M5880 6990 c-265 -37 -464 -282 -447 -550 29 -443 545 -654 879 -360
219 193 228 550 18 760 -57 57 -165 121 -235 138 -61 16 -154 21 -215 12z
m205 -55 c193 -51 337 -226 352 -430 13 -170 -58 -323 -196 -425 -76 -56 -149
-81 -252 -87 -153 -10 -265 32 -370 137 -201 200 -193 511 19 700 120 107 287
146 447 105z"/>
<path d="M5855 6884 c-122 -30 -232 -121 -286 -237 -27 -59 -34 -87 -37 -157
-6 -136 38 -242 141 -337 247 -228 641 -90 708 246 33 170 -67 368 -227 449
-103 52 -190 62 -299 36z m-16 -160 c85 -17 120 -108 60 -158 -17 -14 -42 -29
-55 -32 -112 -28 -213 78 -144 151 34 36 83 50 139 39z"/>
<path d="M5490 7029 c0 -5 5 -7 10 -4 6 3 10 8 10 11 0 2 -4 4 -10 4 -5 0 -10
-5 -10 -11z"/>
<path d="M5540 7033 c1 -14 38 -53 50 -53 7 0 5 11 -7 30 -16 27 -44 42 -43
23z"/>
<path d="M5510 7007 c0 -17 44 -59 53 -51 7 7 -33 64 -45 64 -4 0 -8 -6 -8
-13z"/>
<path d="M6390 6985 c-16 -17 -20 -29 -14 -35 7 -7 18 -2 34 15 16 17 20 29
14 35 -7 7 -18 2 -34 -15z"/>
<path d="M6416 6002 c-7 -12 39 -55 54 -50 6 2 -2 16 -18 31 -17 16 -32 24
-36 19z"/>
<path d="M5575 5960 c-3 -5 -1 -10 4 -10 6 0 11 5 11 10 0 6 -2 10 -4 10 -3 0
-8 -4 -11 -10z"/>
<path d="M5534 5915 c-22 -34 -8 -47 16 -15 22 28 25 40 10 40 -5 0 -17 -11
-26 -25z"/>
<path d="M6297 5933 c-6 -11 41 -83 53 -83 15 0 13 6 -16 50 -28 42 -30 44
-37 33z"/>
<path d="M5574 5895 c-22 -34 -8 -47 16 -15 22 28 25 40 10 40 -5 0 -17 -11
-26 -25z"/>
<path d="M6260 5908 c0 -19 38 -78 50 -78 5 0 0 20 -12 45 -21 44 -38 58 -38
33z"/>
<path d="M5672 5845 c-15 -32 -18 -45 -9 -45 7 0 19 17 27 38 8 20 16 40 18
45 2 4 0 7 -5 7 -5 0 -19 -20 -31 -45z"/>
<path d="M6168 5875 c-9 -9 22 -95 33 -95 11 0 2 44 -15 78 -7 12 -15 20 -18
17z"/>
<path d="M5790 5858 c0 -2 -7 -24 -15 -50 -11 -40 -12 -48 -1 -48 11 0 36 67
36 94 0 6 -20 9 -20 4z"/>
<path d="M5823 5808 c-10 -38 -3 -74 10 -51 10 17 18 93 10 93 -5 0 -14 -19
-20 -42z"/>
<path d="M6035 5804 c9 -57 14 -69 26 -57 12 12 -4 96 -19 101 -11 3 -12 -6
-7 -44z"/>
<path d="M5930 5821 c0 -10 -3 -33 -6 -50 -5 -24 -3 -31 10 -31 13 0 16 11 16
50 0 28 -4 50 -10 50 -5 0 -10 -8 -10 -19z"/>
<path d="M2078 5772 l-28 -3 0 -85 0 -84 1642 0 c1391 0 1640 2 1628 14 -8 7
-53 47 -100 87 l-84 74 -1516 0 c-833 0 -1527 -1 -1542 -3z"/>
<path d="M6921 5773 l-145 -4 -55 -52 c-31 -29 -74 -67 -96 -84 l-40 -32 1720
2 1720 2 3 74 c2 41 -1 78 -6 83 -8 8 -2785 18 -3101 11z"/>
<path d="M2410 4670 l0 -460 51 0 51 0 -4 389 c-2 215 -3 389 -2 388 1 -1 31
-90 67 -197 37 -107 90 -260 119 -340 l53 -145 41 -3 c32 -2 43 1 49 15 27 71
188 525 210 596 16 48 30 86 32 84 2 -2 -1 -78 -7 -168 -6 -90 -10 -265 -8
-389 l3 -225 53 -3 52 -3 0 461 0 461 -72 -3 -72 -3 -53 -150 c-30 -82 -82
-235 -118 -340 -55 -165 -65 -186 -73 -165 -6 14 -59 167 -119 340 l-109 315
-72 3 -72 3 0 -461z"/>
<path d="M3430 4670 l0 -460 55 0 55 0 0 460 0 460 -55 0 -55 0 0 -460z"/>
<path d="M3800 4670 l0 -460 55 0 55 0 0 146 0 146 76 89 c42 49 80 89 84 89
4 0 61 -93 125 -207 161 -284 144 -263 217 -263 33 0 58 4 56 8 -1 4 -72 127
-157 272 -85 145 -156 272 -158 281 -3 12 39 71 124 174 70 85 129 162 131
170 3 12 -8 15 -52 15 l-55 0 -193 -232 -193 -232 -3 232 -2 232 -55 0 -55 0
0 -460z"/>
<path d="M4612 4673 l3 -458 268 -3 267 -2 0 50 0 50 -210 0 -210 0 0 165 0
165 170 0 170 0 0 50 0 50 -170 0 -170 0 0 145 0 145 203 2 202 3 3 48 3 47
-266 0 -265 0 2 -457z"/>
<path d="M5640 5126 c-1 -3 -1 -206 -1 -451 0 -245 0 -450 1 -456 0 -20 384
-6 444 15 74 27 124 64 154 115 24 40 27 57 27 132 0 77 -3 90 -28 127 -25 39
-65 65 -132 87 -20 7 -20 7 0 18 125 73 153 240 58 339 -54 57 -118 71 -330
76 -106 2 -193 1 -193 -2z m396 -113 c100 -53 96 -187 -7 -248 -27 -15 -57
-20 -156 -23 l-123 -4 0 152 0 152 123 -4 c101 -3 129 -7 163 -25z m38 -393
c82 -42 108 -126 67 -216 -15 -34 -30 -47 -77 -70 -53 -26 -70 -29 -186 -32
l-128 -4 0 177 0 177 138 -4 c123 -3 143 -6 186 -28z"/>
<path d="M6465 5119 c-3 -8 -4 -214 -3 -459 l3 -445 55 0 55 0 3 193 2 192 83
0 83 0 109 -192 110 -193 63 -3 c34 -2 62 -1 62 2 0 2 -49 90 -110 194 -60
104 -110 194 -110 200 0 5 10 12 23 16 51 13 112 63 142 117 26 47 30 64 30
134 0 96 -26 153 -90 196 -67 45 -99 51 -307 56 -161 4 -199 3 -203 -8z m371
-94 c61 -18 100 -57 112 -113 18 -80 -12 -149 -85 -190 -33 -18 -62 -23 -160
-28 l-121 -7 -4 164 c-3 90 -3 170 0 177 6 18 195 16 258 -3z"/>
<path d="M7291 4680 c-83 -247 -151 -455 -151 -460 0 -6 25 -10 55 -10 l54 0
43 138 44 137 171 3 171 2 7 -27 c3 -16 22 -79 42 -140 l35 -113 59 0 c32 0
59 2 59 3 0 5 -229 688 -272 812 l-35 100 -65 3 -65 3 -152 -451z m285 133
c35 -115 63 -214 64 -220 0 -10 -33 -13 -135 -13 -74 0 -135 3 -135 7 0 4 20
73 44 153 25 80 54 178 66 218 12 41 24 71 27 68 3 -3 34 -99 69 -213z"/>
<path d="M8020 4670 l0 -460 55 0 55 0 0 215 0 215 215 0 215 0 2 -212 3 -213
55 0 55 0 0 455 0 455 -55 0 -55 0 -3 -192 -2 -193 -215 0 -215 0 0 195 0 195
-55 0 -55 0 0 -460z"/>
<path d="M8940 4670 l0 -461 53 3 52 3 0 280 c-1 154 -4 327 -8 385 l-7 105
78 -145 c107 -198 332 -591 351 -613 12 -14 27 -17 70 -15 l56 3 0 455 0 455
-54 3 -54 3 5 -383 5 -383 -63 120 c-34 66 -129 237 -211 380 l-149 260 -62 3
-62 3 0 -461z"/>
<path d="M6915 3658 c-48 -117 -90 -219 -93 -226 -3 -10 3 -13 24 -10 24 2 31
11 50 58 l22 55 85 3 86 3 22 -61 c20 -55 24 -60 52 -60 24 0 28 3 24 20 -10
39 -172 429 -178 430 -4 0 -46 -96 -94 -212z m126 2 l27 -70 -63 0 -64 0 23
58 c13 31 26 66 30 76 9 26 15 17 47 -64z"/>
<path d="M3424 3847 c-2 -7 -3 -105 -2 -217 l3 -205 28 -3 27 -3 0 80 0 81 48
0 c96 0 157 56 156 143 0 65 -22 100 -75 121 -49 20 -177 22 -185 3z m180 -68
c35 -28 36 -80 1 -114 -19 -20 -34 -25 -75 -25 l-50 0 0 80 0 80 49 0 c34 0
56 -6 75 -21z"/>
<path d="M3845 3848 c-3 -7 -4 -106 -3 -218 l3 -205 25 0 c25 0 25 1 28 93 l3
92 114 0 115 0 0 -95 c0 -95 0 -95 25 -95 l25 0 0 220 0 220 -25 0 c-25 0 -25
0 -25 -95 l0 -95 -115 0 -114 0 -3 93 c-3 87 -4 92 -26 95 -12 2 -24 -3 -27
-10z"/>
<path d="M4475 3843 c-167 -88 -173 -310 -10 -396 93 -49 217 -17 279 71 39
55 49 158 21 213 -24 47 -63 87 -107 110 -46 24 -140 25 -183 2z m151 -52
c176 -80 100 -339 -92 -308 -122 20 -173 173 -88 266 53 59 112 73 180 42z"/>
<path d="M4894 3845 c-13 -33 4 -45 61 -45 l55 0 0 -190 0 -190 25 0 25 0 0
190 0 190 60 0 60 0 0 30 0 30 -140 0 c-116 0 -142 -3 -146 -15z"/>
<path d="M5440 3854 c-40 -16 -94 -62 -115 -98 -54 -92 -41 -191 35 -266 77
-78 179 -90 271 -31 133 84 131 280 -2 368 -33 22 -55 28 -108 30 -36 1 -73 0
-81 -3z m140 -66 c61 -31 90 -77 90 -142 0 -66 -26 -115 -76 -143 -139 -80
-294 66 -225 210 42 87 127 117 211 75z"/>
<path d="M6000 3847 c-85 -40 -130 -113 -130 -210 0 -72 20 -117 72 -162 66
-56 164 -68 254 -30 l34 14 0 90 0 91 -70 0 -70 0 0 -30 c0 -28 2 -30 40 -30
l40 0 0 -44 c0 -37 -4 -45 -22 -50 -43 -11 -104 -6 -138 13 -56 29 -80 73 -80
147 0 59 3 67 36 103 47 53 117 71 184 47 24 -8 45 -14 46 -13 1 1 5 13 9 27
5 22 2 27 -28 38 -42 15 -144 14 -177 -1z"/>
<path d="M6404 3847 c-2 -7 -3 -105 -2 -217 l3 -205 28 -3 27 -3 0 80 0 81 40
0 c40 0 42 -2 92 -80 44 -70 54 -80 79 -80 16 0 29 3 29 8 0 4 -23 42 -50 86
l-51 78 26 24 c74 68 55 192 -35 228 -50 20 -178 22 -186 3z m181 -72 c16 -15
25 -36 25 -55 0 -49 -38 -80 -100 -80 l-50 0 0 80 0 80 50 0 c41 0 56 -5 75
-25z"/>
<path d="M7340 3639 l0 -220 28 3 c27 3 27 4 30 81 l3 77 45 0 c99 0 146 42
152 133 3 53 1 66 -19 91 -32 40 -77 56 -164 56 l-75 0 0 -221z m185 136 c16
-15 25 -36 25 -55 0 -49 -38 -80 -100 -80 l-50 0 0 80 0 80 50 0 c41 0 56 -5
75 -25z"/>
<path d="M7760 3640 l0 -221 28 3 27 3 1 90 2 90 111 3 111 3 0 -80 c0 -96 5
-111 36 -111 l24 0 0 221 0 220 -27 -3 -28 -3 -3 -92 -3 -93 -109 0 -109 0 -3
93 -3 92 -27 3 -28 3 0 -221z"/>
<path d="M8250 3854 c0 -4 33 -66 72 -138 70 -126 73 -134 78 -211 5 -78 6
-80 33 -83 l27 -3 0 74 c0 74 1 75 75 209 41 74 75 140 75 146 0 7 -13 12 -28
12 -27 0 -34 -9 -86 -110 -32 -60 -60 -110 -64 -110 -4 0 -32 48 -62 108 -51
100 -57 107 -87 110 -18 2 -33 0 -33 -4z"/>
</g>
</svg>
